<svg xmlns="http://www.w3.org/2000/svg" width="93" height="21" viewBox="0 0 93 21">
    <path fill="#4A4A4A" fill-rule="evenodd" d="M91.62 8.952a2.912 2.912 0 0 0-.709-.363c-.264-.092-.603-.14-1.017-.14-.668 0-1.18.155-1.535.461-.358.308-.58.72-.673 1.242v10.57h-4.452V5.131h4.452v.808c.712-.725 1.667-1.087 2.864-1.087.46 0 .902.06 1.329.18.424.122.798.312 1.121.572l-1.38 3.347zM76.435 19.857c-.392.317-.926.586-1.605.809a7.142 7.142 0 0 1-2.226.334 7.132 7.132 0 0 1-2.432-.404 6.257 6.257 0 0 1-1.985-1.144 5.185 5.185 0 0 1-1.346-1.784c-.321-.7-.483-1.484-.483-2.359 0-1.822.634-3.187 1.899-4.098 1.265-.911 2.933-1.366 5.004-1.366.552 0 1.11.042 1.673.127a4.413 4.413 0 0 1 1.537.513c-.161-.744-.474-1.267-.934-1.575-.46-.306-1.128-.46-2-.46-.715 0-1.324.097-1.83.292a7.065 7.065 0 0 0-1.482.796l-2.003-2.762c.667-.593 1.483-1.063 2.45-1.407.967-.344 2.013-.516 3.14-.516 1.058 0 2.025.139 2.898.419.874.277 1.618.673 2.227 1.184a5.228 5.228 0 0 1 1.415 1.868c.334.736.5 1.549.5 2.442v9.955h-4.417v-.864zM76.4 14.03c-.184-.261-.494-.48-.931-.656a3.838 3.838 0 0 0-1.45-.266c-2.162 0-3.243.707-3.243 2.12 0 .613.28 1.102.845 1.463.562.364 1.236.545 2.019.545 1.149 0 2.07-.336 2.76-1.005v-2.201zm-13.941 1.98c0 .52.148.882.45 1.085.298.207.711.308 1.241.308.39 0 .788-.066 1.191-.195.402-.13.764-.308 1.088-.53l-.691 3.877c-.231.112-.57.215-1.018.307-.449.093-1.076.139-1.88.139-1.543 0-2.722-.413-3.539-1.24-.815-.83-1.224-1.921-1.224-3.277v-7.81H56.11V5.133h1.968v-2.9L62.46.697v4.434h3.312v3.542H62.46v7.334zm-10.525-7.14a8.475 8.475 0 0 0-2.21-.28c-.918 0-1.54.089-1.861.265-.323.177-.485.405-.485.684 0 .297.184.534.553.712.369.175.811.33 1.328.458.518.13 1.071.243 1.657.335.586.095 1.11.206 1.57.335 1.173.372 2.099.907 2.778 1.603.678.7 1.018 1.66 1.018 2.886 0 .95-.195 1.75-.586 2.4a4.526 4.526 0 0 1-1.605 1.577c-.679.4-1.484.692-2.415.877-.933.187-1.928.279-2.986.279-.896 0-1.875-.102-2.933-.307a10.128 10.128 0 0 1-3.037-1.114l1.519-3.237c.46.26 1.092.503 1.897.725a9.985 9.985 0 0 0 2.658.335c1.105 0 1.898-.144 2.38-.433.485-.287.727-.656.727-1.102 0-.351-.174-.64-.519-.862-.345-.225-.897-.419-1.657-.588a45.565 45.565 0 0 1-2.829-.696c-.851-.242-1.576-.534-2.174-.877-.599-.346-1.059-.769-1.38-1.272-.323-.501-.484-1.124-.484-1.868 0-.835.184-1.555.553-2.159a4.462 4.462 0 0 1 1.5-1.494c.634-.39 1.392-.673 2.278-.85a14.775 14.775 0 0 1 2.881-.264c2.048 0 3.841.455 5.384 1.366l-1.277 3.486c-.805-.427-1.552-.736-2.243-.92zm-12.837 8.225c.298.207.713.308 1.243.308.39 0 .788-.066 1.19-.195.402-.13.764-.308 1.087-.53l-.69 3.877c-.23.112-.57.215-1.018.307-.45.093-1.076.139-1.882.139-1.541 0-2.719-.413-3.536-1.24-.817-.83-1.225-1.921-1.225-3.277v-7.81H32.3V5.133h1.967v-2.9L38.65.697v4.434h3.312v3.542H38.65v7.334c0 .522.149.883.448 1.086zm-9.369 1.562a7.33 7.33 0 0 1-2.466 1.717c-.967.419-2.036.627-3.21.627s-2.244-.208-3.21-.627a7.315 7.315 0 0 1-2.467-1.717 7.8 7.8 0 0 1-1.587-2.565 8.753 8.753 0 0 1-.57-3.178c0-1.135.19-2.19.57-3.165a7.845 7.845 0 0 1 1.587-2.553 7.307 7.307 0 0 1 2.467-1.715c.966-.419 2.036-.627 3.21-.627s2.243.208 3.21.627c.964.418 1.788.991 2.466 1.715a7.875 7.875 0 0 1 1.588 2.553c.38.975.57 2.03.57 3.165 0 1.134-.19 2.194-.57 3.178a7.83 7.83 0 0 1-1.588 2.565zM26.606 9.76c-.599-.798-1.45-1.198-2.554-1.198-1.104 0-1.955.4-2.553 1.198-.598.8-.898 1.85-.898 3.153 0 1.302.3 2.355.898 3.164.598.81 1.449 1.212 2.553 1.212 1.104 0 1.955-.402 2.554-1.212.599-.809.897-1.862.897-3.164 0-1.303-.298-2.353-.897-3.153zm-16.53 1.2a2.54 2.54 0 0 0-.672-1.77c-.45-.493-1.18-.74-2.192-.74-.666 0-1.248.154-1.743.46-.494.308-.832.712-1.017 1.214V20.72H0V1.562L4.452 0v6.274c.966-.947 2.29-1.421 3.968-1.421.967 0 1.829.139 2.589.419.76.277 1.397.673 1.914 1.184a4.97 4.97 0 0 1 1.174 1.84c.266.718.397 1.51.397 2.385v10.04h-4.418V10.96z"/>
</svg>
